<?xml version="1.0" encoding="UTF-8"?>
<!DOCTYPE svg PUBLIC "-//W3C//DTD SVG 1.1//EN" "http://www.w3.org/Graphics/SVG/1.1/DTD/svg11.dtd">
<!-- Creator: CorelDRAW 2021 (64-Bit) -->
<svg xmlns="http://www.w3.org/2000/svg" xml:space="preserve" width="52px" height="52px" version="1.1" style="shape-rendering:geometricPrecision; text-rendering:geometricPrecision; image-rendering:optimizeQuality; fill-rule:evenodd; clip-rule:evenodd"
viewBox="0 0 52 52"
 xmlns:xlink="http://www.w3.org/1999/xlink"
 xmlns:xodm="http://www.corel.com/coreldraw/odm/2003">
 <defs>
  <style type="text/css">
   <![CDATA[
    .fil0 {fill:none}
    .fil1 {fill:black}
   ]]>
  </style>
 </defs>
 <g id="Layer_x0020_1">
  <metadata id="CorelCorpID_0Corel-Layer"/>
  <rect class="fil0" x="1" y="1" width="50" height="50"/>
  <g id="_1707093040624">
   <path class="fil1" d="M25.99 48.56c-1.16,0 -2.81,-0.18 -3.78,-0.43 -0.55,-0.14 -1.16,-0.29 -1.67,-0.48 -0.56,-0.21 -0.99,-0.37 -1.55,-0.6 -1.1,-0.46 -2.34,-1.24 -3.3,-1.97 -5.84,-4.37 -8.82,-12.91 -5.17,-20.09 0.19,-0.36 0.27,-0.59 0.43,-0.94 0.82,-1.86 3.5,-5.85 4.89,-7.7l7.19 -8.73c0.32,-0.35 2.78,-3.2 2.86,-3.49l0.19 0c0.09,0.32 2.03,2.46 2.47,2.99l0.97 1.09c0.13,0.18 0.13,0.2 0.3,0.38l1.62 1.9c0.12,0.15 0.2,0.21 0.32,0.36l5.46 6.95c0.38,0.54 0.72,1.03 1.11,1.62 2.18,3.27 4.74,7.83 4.74,11.95 0,1.01 -0.14,2.83 -0.4,3.79 -0.3,1.06 -0.62,2.27 -1.09,3.21 -1.45,2.87 -1.87,3.42 -4.05,5.62 -0.19,0.19 -0.33,0.36 -0.54,0.54l-3.22 2.14c-2.28,1.06 -4.65,1.89 -7.78,1.89zm-0.1 -47.56l0.22 0c0.35,0.03 0.69,0.22 0.97,0.57l10.46 12.59c0.25,0.33 0.43,0.54 0.68,0.87l1.91 2.69c0.23,0.34 0.4,0.61 0.61,0.95 0.19,0.33 0.39,0.59 0.61,0.95 0.38,0.65 0.77,1.24 1.11,1.92 1.14,2.3 2.04,3.86 2.69,6.59 0.82,3.47 0.28,6.88 -0.84,10.14 -0.54,1.54 -1.49,3.31 -2.45,4.58 -0.87,1.16 -2.21,2.78 -3.37,3.66 -2.07,1.56 -2.06,1.54 -4.33,2.7 -2.69,1.36 -5.47,1.79 -8.86,1.79 -4.1,0 -9.63,-2.22 -12.47,-5.1 -0.26,-0.27 -0.39,-0.31 -0.64,-0.54 -0.25,-0.23 -0.28,-0.38 -0.53,-0.64 -0.21,-0.22 -0.39,-0.35 -0.59,-0.59 -1.84,-2.18 -3.29,-4.93 -3.99,-7.72 -0.67,-2.67 -0.63,-2.97 -0.63,-5.63 0,-0.57 0.05,-0.89 0.14,-1.42 0.08,-0.42 0.16,-0.95 0.25,-1.31 0.76,-2.96 1.44,-4.02 2.67,-6.51 1.37,-2.77 5.01,-7.6 6.98,-10.01l3.47 -4.15c0.15,-0.18 0.24,-0.24 0.38,-0.41l4.6 -5.45c0.27,-0.31 0.61,-0.49 0.95,-0.52z"/>
   <path class="fil1" d="M25.3 44.75c1.23,0 1.96,0.08 1.96,-1.47 0,-0.27 -0.42,-0.72 -0.81,-0.85 -0.73,-0.24 -3.3,0.19 -6.36,-1.94 -1.19,-0.82 -1.71,-1.36 -2.53,-2.45 -1.54,-2.04 -1.79,-3.87 -2.03,-6.27 -0.09,-0.93 -1.07,-1.48 -1.87,-0.91 -1.5,1.06 0.37,6.5 1.93,8.56 1.24,1.64 2.44,2.87 4.44,3.87 1.48,0.73 3.52,1.46 5.27,1.46z"/>
  </g>
 </g>
</svg>
