<?xml version="1.0" encoding="UTF-8"?>
<!DOCTYPE svg PUBLIC "-//W3C//DTD SVG 1.1//EN" "http://www.w3.org/Graphics/SVG/1.1/DTD/svg11.dtd">
<!-- Creator: CorelDRAW 2021 (64-Bit) -->
<svg xmlns="http://www.w3.org/2000/svg" xml:space="preserve" width="60px" height="85px" version="1.1" style="shape-rendering:geometricPrecision; text-rendering:geometricPrecision; image-rendering:optimizeQuality; fill-rule:evenodd; clip-rule:evenodd"
viewBox="0 0 60 84.86"
 xmlns:xlink="http://www.w3.org/1999/xlink"
 xmlns:xodm="http://www.corel.com/coreldraw/odm/2003">
 <defs>
  <style type="text/css">
   <![CDATA[
    .fil0 {fill:white}
   ]]>
  </style>
 </defs>
 <g id="Layer_x0020_1">
  <metadata id="CorelCorpID_0Corel-Layer"/>
  <g id="_3054934391936">
   <path class="fil0" d="M27.17 62.8c-0.79,0 -1.91,-0.13 -2.57,-0.3 -0.38,-0.09 -0.8,-0.19 -1.14,-0.32 -0.39,-0.15 -0.68,-0.25 -1.06,-0.41 -0.75,-0.31 -1.6,-0.85 -2.25,-1.34 -3.98,-2.98 -6.01,-8.8 -3.52,-13.7 0.12,-0.24 0.18,-0.4 0.28,-0.64 0.56,-1.27 2.39,-3.99 3.34,-5.25l4.9 -5.95c0.22,-0.24 1.9,-2.18 1.95,-2.38l0.13 0c0.06,0.22 1.38,1.68 1.69,2.04l0.65 0.74c0.1,0.12 0.09,0.14 0.21,0.26l1.1 1.29c0.09,0.11 0.14,0.15 0.22,0.25l3.72 4.74c0.26,0.37 0.49,0.7 0.76,1.1 1.49,2.23 3.24,5.34 3.24,8.15 0,0.69 -0.1,1.93 -0.28,2.58 -0.2,0.72 -0.42,1.55 -0.74,2.19 -0.99,1.96 -1.28,2.33 -2.76,3.83 -0.13,0.13 -0.23,0.25 -0.37,0.37l-2.2 1.46c-1.55,0.72 -3.17,1.29 -5.3,1.29zm-0.07 -32.42l0.15 0c0.24,0.02 0.47,0.15 0.66,0.39l7.13 8.57c0.17,0.24 0.3,0.37 0.47,0.6l1.3 1.83c0.15,0.23 0.27,0.42 0.41,0.65 0.13,0.23 0.27,0.4 0.42,0.65 0.26,0.44 0.53,0.85 0.75,1.31 0.78,1.57 1.4,2.63 1.84,4.49 0.56,2.37 0.19,4.69 -0.57,6.91 -0.37,1.05 -1.02,2.26 -1.67,3.13 -0.59,0.78 -1.51,1.89 -2.3,2.49 -1.41,1.07 -1.4,1.05 -2.95,1.84 -1.83,0.93 -3.73,1.22 -6.04,1.22 -2.8,0 -6.57,-1.52 -8.5,-3.48 -0.18,-0.18 -0.27,-0.21 -0.44,-0.36 -0.17,-0.16 -0.19,-0.26 -0.36,-0.44 -0.14,-0.15 -0.27,-0.24 -0.4,-0.4 -1.26,-1.49 -2.24,-3.36 -2.72,-5.27 -0.46,-1.82 -0.43,-2.02 -0.43,-3.83 0,-0.39 0.04,-0.61 0.1,-0.97 0.04,-0.29 0.1,-0.65 0.17,-0.9 0.51,-2.01 0.98,-2.73 1.82,-4.43 0.93,-1.89 3.41,-5.18 4.75,-6.83l2.37 -2.83c0.1,-0.11 0.16,-0.16 0.25,-0.27l3.14 -3.72c0.19,-0.21 0.42,-0.33 0.65,-0.35z"/>
   <path class="fil0" d="M26.7 60.2c0.84,0 1.33,0.05 1.33,-1 0,-0.19 -0.28,-0.49 -0.55,-0.58 -0.5,-0.16 -2.25,0.13 -4.34,-1.32 -0.8,-0.56 -1.16,-0.93 -1.72,-1.67 -1.05,-1.39 -1.22,-2.64 -1.38,-4.28 -0.06,-0.63 -0.73,-1 -1.28,-0.62 -1.02,0.73 0.26,4.43 1.32,5.84 0.85,1.12 1.66,1.96 3.02,2.63 1.02,0.5 2.41,1 3.6,1z"/>
  </g>
 </g>
</svg>
