<?xml version="1.0" encoding="UTF-8"?>
<!DOCTYPE svg PUBLIC "-//W3C//DTD SVG 1.1//EN" "http://www.w3.org/Graphics/SVG/1.1/DTD/svg11.dtd">
<!-- Creator: CorelDRAW 2021 (64-Bit) -->
<svg xmlns="http://www.w3.org/2000/svg" xml:space="preserve" width="60px" height="85px" version="1.1" style="shape-rendering:geometricPrecision; text-rendering:geometricPrecision; image-rendering:optimizeQuality; fill-rule:evenodd; clip-rule:evenodd"
viewBox="0 0 60 84.86"
 xmlns:xlink="http://www.w3.org/1999/xlink"
 xmlns:xodm="http://www.corel.com/coreldraw/odm/2003">
 <defs>
  <style type="text/css">
   <![CDATA[
    .fil0 {fill:white}
   ]]>
  </style>
 </defs>
 <g id="Layer_x0020_1">
  <metadata id="CorelCorpID_0Corel-Layer"/>
  <path class="fil0" d="M33.45 51.56l4.99 0 0 10.35 -4.99 0 0 -10.35zm-4.54 -4.54l2.27 0 0 14.89 -2.27 0 0 -14.89zm-7.25 4.54l4.99 0 0 10.35 -4.99 0 0 -10.35zm11.79 -4.54l6.5 0 0 2.27 -6.5 0 0 -2.27zm-13.3 0l6.5 0 0 2.27 -6.5 0 0 -2.27zm12.47 -2.26l-1.44 0c0,-1.38 -0.2,-2.55 0.91,-3.18 1.38,-0.79 3.05,0.78 2.29,2.22 -0.32,0.63 -0.84,0.96 -1.76,0.96zm-3.71 -1.44l0 1.44c-1.3,0 -2.61,0.2 -3.17,-0.91 -0.77,-1.49 0.83,-3.03 2.22,-2.3 0.62,0.33 0.95,0.86 0.95,1.77zm-5.66 -0.6c0,0.82 -0.02,1.29 0.37,2.04 -0.52,0 -4.64,-0.05 -4.95,0.03 -0.37,0.09 -0.79,0.53 -0.79,0.95l0 4.84c0,0.46 0.52,0.98 0.98,0.98l0.53 0 0 8.09 -3.93 0c-0.89,0 -1.36,-0.47 -1.36,-1.36l0 -21.47 31.9 0 0 21.47c0,0.89 -0.47,1.36 -1.36,1.36l-3.93 0 0 -8.09 0.53 0c0.46,0 0.98,-0.52 0.98,-0.98l0 -4.84c0,-0.41 -0.4,-0.82 -0.73,-0.94 -0.44,-0.14 -1.12,-0.04 -1.62,-0.04 -1.13,0 -2.26,0 -3.4,0 1.29,-2.43 -0.73,-5.67 -3.25,-5.67 -1.95,0 -2.06,0.39 -3.17,1.13 -1.12,-0.75 -1.23,-1.13 -3.18,-1.13 -1.79,0 -3.62,1.93 -3.62,3.63zm-9.15 -11.34c0,-0.89 0.47,-1.36 1.36,-1.36l5.9 0 0 1.28c0,1.31 2.26,1.31 2.26,0l0 -1.28 5.29 0 0 1.28c0,1.31 2.27,1.31 2.27,0l0 -1.28 5.29 0 0 1.28c0,1.31 2.27,1.31 2.27,0l0 -1.28 5.9 0c0.89,0 1.36,0.47 1.36,1.36l0 3.17 -31.9 0 0 -3.17zm7.26 -4.92l0 1.29 -6.35 0c-0.43,0 -0.95,0.18 -1.26,0.33 -0.97,0.45 -1.92,1.6 -1.92,2.92l0 27.66c0,1.01 0.44,1.7 0.97,2.22 0.57,0.56 1.3,1.03 2.21,1.03l4.38 0 0 1.29c0,0.46 0.52,0.98 0.98,0.98l19.35 0c0.47,0 0.99,-0.52 0.99,-0.98l0 -1.29 4.3 0c1.75,0 3.25,-1.65 3.25,-3.17l0 -27.82c0,-0.86 -0.45,-1.62 -1,-2.17 -0.54,-0.54 -1.19,-1 -2.25,-1l-6.27 0 0 -1.29c0,-1.3 -2.27,-1.3 -2.27,0l0 1.29 -5.29 0 0 -1.29c0,-1.3 -2.27,-1.3 -2.27,0l0 1.29 -5.29 0 0 -1.29c0,-1.3 -2.26,-1.3 -2.26,0z"/>
 </g>
</svg>
