<?xml version="1.0" encoding="UTF-8"?>
<!DOCTYPE svg PUBLIC "-//W3C//DTD SVG 1.1//EN" "http://www.w3.org/Graphics/SVG/1.1/DTD/svg11.dtd">
<!-- Creator: CorelDRAW 2019 (64 Bit) -->
<svg xmlns="http://www.w3.org/2000/svg" xml:space="preserve" width="45px" height="45px" version="1.1" style="shape-rendering:geometricPrecision; text-rendering:geometricPrecision; image-rendering:optimizeQuality; fill-rule:evenodd; clip-rule:evenodd"
viewBox="0 0 45 45"
 xmlns:xlink="http://www.w3.org/1999/xlink">
 <defs>
  <style type="text/css">
   <![CDATA[
    .fil0 {fill:black}
   ]]>
  </style>
 </defs>
 <g id="Camada_x0020_1">
  <metadata id="CorelCorpID_0Corel-Layer"/>
  <path class="fil0" d="M25.74 30.38l5.47 0 0 11.37 -5.47 0 0 -11.37zm-4.98 -4.98l2.49 0 0 16.35 -2.49 0 0 -16.35zm-7.97 4.98l5.48 0 0 11.37 -5.48 0 0 -11.37zm12.95 -4.98l7.13 0 0 2.49 -7.13 0 0 -2.49zm-14.61 0l7.14 0 0 2.49 -7.14 0 0 -2.49zm13.69 -2.49l-1.57 0c0,-1.51 -0.23,-2.79 0.99,-3.48 1.52,-0.87 3.35,0.86 2.52,2.44 -0.36,0.68 -0.93,1.04 -1.94,1.04zm-4.06 -1.57l0 1.57c-1.44,0 -2.87,0.23 -3.5,-0.99 -0.83,-1.64 0.92,-3.32 2.45,-2.52 0.67,0.35 1.05,0.94 1.05,1.94zm-6.23 -0.67c0,0.91 -0.02,1.42 0.42,2.24 -0.58,0 -5.11,-0.05 -5.45,0.04 -0.4,0.1 -0.86,0.58 -0.86,1.04l0 5.31c0,0.51 0.57,1.08 1.08,1.08l0.58 0 0 8.88 -4.32 0c-0.98,0 -1.49,-0.51 -1.49,-1.49l0 -23.57 35.02 0 0 23.57c0,0.98 -0.51,1.49 -1.49,1.49l-4.32 0 0 -8.88 0.58 0c0.51,0 1.08,-0.57 1.08,-1.08l0 -5.31c0,-0.45 -0.43,-0.9 -0.8,-1.02 -0.48,-0.16 -1.23,-0.06 -1.77,-0.06 -1.24,0 -2.49,0 -3.73,0 1.41,-2.66 -0.81,-6.22 -3.57,-6.22 -2.15,0 -2.27,0.43 -3.49,1.24 -1.23,-0.82 -1.35,-1.24 -3.49,-1.24 -1.97,0 -3.98,2.13 -3.98,3.98zm-10.04 -12.45c0,-0.97 0.51,-1.49 1.49,-1.49l6.48 0 0 1.41c0,1.43 2.49,1.43 2.49,0l0 -1.41 5.81 0 0 1.41c0,1.43 2.49,1.43 2.49,0l0 -1.41 5.81 0 0 1.41c0,1.43 2.49,1.43 2.49,0l0 -1.41 6.47 0c0.98,0 1.49,0.52 1.49,1.49l0 3.49 -35.02 0 0 -3.49zm7.97 -5.39l0 1.41 -6.98 0c-0.46,0 -1.04,0.2 -1.38,0.36 -1.06,0.5 -2.1,1.76 -2.1,3.21l0 30.37c0,1.11 0.48,1.86 1.06,2.43 0.62,0.63 1.43,1.14 2.42,1.14l4.82 0 0 1.41c0,0.51 0.57,1.08 1.08,1.08l21.24 0c0.51,0 1.08,-0.57 1.08,-1.08l0 -1.41 4.73 0c1.92,0 3.57,-1.81 3.57,-3.48l0 -30.54c0,-0.95 -0.49,-1.79 -1.1,-2.39 -0.59,-0.6 -1.31,-1.1 -2.47,-1.1l-6.88 0 0 -1.41c0,-1.43 -2.49,-1.43 -2.49,0l0 1.41 -5.81 0 0 -1.41c0,-1.43 -2.49,-1.43 -2.49,0l0 1.41 -5.81 0 0 -1.41c0,-1.43 -2.49,-1.43 -2.49,0z"/>
 </g>
</svg>
