<?xml version="1.0" encoding="UTF-8"?>
<!DOCTYPE svg PUBLIC "-//W3C//DTD SVG 1.1//EN" "http://www.w3.org/Graphics/SVG/1.1/DTD/svg11.dtd">
<!-- Creator: CorelDRAW 2019 (64 Bit) -->
<svg xmlns="http://www.w3.org/2000/svg" xml:space="preserve" width="45px" height="45px" version="1.1" style="shape-rendering:geometricPrecision; text-rendering:geometricPrecision; image-rendering:optimizeQuality; fill-rule:evenodd; clip-rule:evenodd"
viewBox="0 0 45 45"
 xmlns:xlink="http://www.w3.org/1999/xlink">
 <defs>
  <style type="text/css">
   <![CDATA[
    .fil0 {fill:black}
   ]]>
  </style>
 </defs>
 <g id="Camada_x0020_1">
  <metadata id="CorelCorpID_0Corel-Layer"/>
  <g id="_2410304990720">
   <path class="fil0" d="M4.36 34.82l35.31 0 0 2.26 -35.31 0 0 -2.26zm37.66 -16.57l0 7.76c-0.02,0.23 -0.31,0.29 -0.52,0.4l-4.25 2.08c0,1.59 -0.84,2.71 -1.64,3.91l6.41 0 0 7.11 -40.01 0 0 -7.11 2.35 0 0 -9.61c-0.5,-0.04 -1.07,-0.53 -1.4,-0.87 -0.02,-0.02 -0.06,-0.06 -0.08,-0.08 -0.05,-0.06 -0.09,-0.1 -0.14,-0.17 -0.49,-0.6 -0.71,-1.3 -0.73,-2.16l0 -0.13c0.03,-2.17 1.72,-3.47 4.07,-3.47l10.7 0c1.31,0 2.2,0.29 2.91,0.92 1.31,1.15 1.57,3.49 0.43,4.84 -0.33,0.39 -1.02,1.07 -1.62,1.12l0 9.61 6.4 0c-0.83,-1.25 -1.71,-2.37 -1.71,-4.3l0 -12.19 14.14 0 0 2.34 4.69 0zm-35.24 9.54l9.3 0 0 4.61 -9.3 0 0 -4.61zm18.75 -0.79l0 -3.98 9.38 0 0 4.92c0,1.23 -0.61,2.36 -1.39,3.15 -1.27,1.28 -3.53,1.71 -5.28,0.87 -0.71,-0.34 -0.96,-0.59 -1.48,-1.11 -0.96,-0.95 -1.23,-2.43 -1.23,-3.85zm11.81 -1.22l-0.01 -5.1 2.34 0 0 3.98 -2.33 1.12zm-11.81 -5.34l0 -2.11 9.38 0 0 2.35 -9.15 0c-0.17,0 -0.23,-0.06 -0.23,-0.24zm-21.09 -0.78c0,-0.67 0.2,-1.33 1.17,-1.33l11.64 0c1.5,0 1.74,2.35 -0.24,2.35l-0.93 0 0 4.68 -9.3 0 0 -4.68c-0.75,0 -2.34,0.13 -2.34,-1.02z"/>
   <path class="fil0" d="M30.22 7.71c0,1.98 1.48,3.29 3.17,3.55 0.44,0.07 1.5,-0.05 1.52,1.21 0.03,1.42 -0.54,1.17 2.42,1.17 0,-1.62 0.05,-3.17 -1.65,-4.21 -1.3,-0.81 -2.06,-0.33 -2.63,-0.8 -0.56,-0.46 -0.41,-1.16 -0.41,-2.09l-2.42 0 0 1.17z"/>
   <path class="fil0" d="M22.01 8.02c0,1.65 1.51,3.13 3.52,3.28 0.44,0.03 0.61,0.09 0.85,0.33 0.45,0.45 0.32,1.23 0.32,2.01l2.19 0c0.32,0 0.23,-0.24 0.23,-0.85 0,-2.21 -1.33,-3.8 -3.59,-3.91 -1.33,-0.06 -1.17,-1.44 -1.17,-2.34l-2.35 0 0 1.48z"/>
  </g>
 </g>
</svg>
