<?xml version="1.0" encoding="UTF-8"?>
<!DOCTYPE svg PUBLIC "-//W3C//DTD SVG 1.1//EN" "http://www.w3.org/Graphics/SVG/1.1/DTD/svg11.dtd">
<!-- Creator: CorelDRAW 2021 (64-Bit) -->
<svg xmlns="http://www.w3.org/2000/svg" xml:space="preserve" width="60px" height="85px" version="1.1" style="shape-rendering:geometricPrecision; text-rendering:geometricPrecision; image-rendering:optimizeQuality; fill-rule:evenodd; clip-rule:evenodd"
viewBox="0 0 60 84.86"
 xmlns:xlink="http://www.w3.org/1999/xlink"
 xmlns:xodm="http://www.corel.com/coreldraw/odm/2003">
 <defs>
  <style type="text/css">
   <![CDATA[
    .fil0 {fill:black}
   ]]>
  </style>
 </defs>
 <g id="Layer_x0020_1">
  <metadata id="CorelCorpID_0Corel-Layer"/>
  <g id="_3176685083760">
   <path class="fil0" d="M13.18 62.76l34.16 0 0 2.19 -34.16 0 0 -2.19zm2.34 -6.8l9 0 0 4.46 -9 0 0 -4.46zm18.14 -0.76l0 -3.85 9.07 0 0 4.76c0,1.19 -0.58,2.28 -1.34,3.04 -1.23,1.24 -3.41,1.66 -5.11,0.84 -0.68,-0.33 -0.93,-0.57 -1.43,-1.06 -0.92,-0.92 -1.19,-2.36 -1.19,-3.73zm11.43 -1.18l-0.01 -4.94 2.26 0 0 3.85 -2.25 1.09zm-11.43 -5.17l0 -2.04 9.07 0 0 2.27 -8.84 0c-0.17,0 -0.23,-0.05 -0.23,-0.23zm-20.4 -0.75c0,-0.66 0.19,-1.29 1.13,-1.29l11.26 0c1.45,0 1.69,2.27 -0.23,2.27l-0.9 0 0 4.53 -9 0 0 -4.53c-0.72,0 -2.26,0.13 -2.26,-0.98zm-2.35 -0.23c0,0.87 0.22,1.57 0.7,2.17 0.06,0.06 0.09,0.11 0.14,0.16 0.02,0.02 0.06,0.07 0.08,0.08 0.32,0.33 0.87,0.8 1.35,0.84l0 9.3 -2.27 0 0 6.88 38.7 0 0 -6.88 -6.2 0c0.78,-1.16 1.59,-2.24 1.59,-3.78l4.11 -2.02c0.21,-0.1 0.5,-0.17 0.5,-0.4l0 -7.48 -4.53 0 0 -2.27 -13.68 0 0 11.79c0,1.87 0.85,2.95 1.66,4.16l-6.2 0 0 -9.3c0.58,-0.05 1.25,-0.7 1.57,-1.08 1.1,-1.3 0.85,-3.57 -0.42,-4.68 -0.68,-0.61 -1.54,-0.89 -2.81,-0.89l-10.36 0c-2.29,0 -3.93,1.27 -3.93,3.4z"/>
   <path class="fil0" d="M38.2 36.53c0,1.92 1.44,3.19 3.06,3.44 0.43,0.06 1.46,-0.05 1.48,1.17 0.02,1.38 -0.53,1.14 2.34,1.14 0,-1.58 0.04,-3.07 -1.59,-4.08 -1.27,-0.78 -2,-0.32 -2.55,-0.78 -0.55,-0.44 -0.4,-1.12 -0.4,-2.02l-2.34 0 0 1.13z"/>
   <path class="fil0" d="M30.26 36.83c0,1.61 1.46,3.04 3.41,3.18 0.42,0.03 0.58,0.08 0.81,0.32 0.44,0.43 0.32,1.19 0.32,1.95l2.11 0c0.31,0 0.23,-0.24 0.23,-0.83 0,-2.14 -1.29,-3.68 -3.48,-3.78 -1.28,-0.06 -1.13,-1.4 -1.13,-2.27l-2.27 0 0 1.43z"/>
  </g>
 </g>
</svg>
