<?xml version="1.0" encoding="UTF-8"?>
<!DOCTYPE svg PUBLIC "-//W3C//DTD SVG 1.1//EN" "http://www.w3.org/Graphics/SVG/1.1/DTD/svg11.dtd">
<!-- Creator: CorelDRAW 2021 (64-Bit) -->
<svg xmlns="http://www.w3.org/2000/svg" xml:space="preserve" width="60px" height="85px" version="1.1" style="shape-rendering:geometricPrecision; text-rendering:geometricPrecision; image-rendering:optimizeQuality; fill-rule:evenodd; clip-rule:evenodd"
viewBox="0 0 60 84.86"
 xmlns:xlink="http://www.w3.org/1999/xlink"
 xmlns:xodm="http://www.corel.com/coreldraw/odm/2003">
 <defs>
  <style type="text/css">
   <![CDATA[
    .fil0 {fill:white}
   ]]>
  </style>
 </defs>
 <g id="Layer_x0020_1">
  <metadata id="CorelCorpID_0Corel-Layer"/>
  <g id="_3176793806944">
   <path class="fil0" d="M33.79 47.1c0.41,-0.19 1.35,-0.38 1.97,-0.38 4.83,0 7.11,5.49 4.62,8.86 -0.9,1.21 -2.37,2.24 -3.94,2.33 -2.12,0.11 -1.83,-0.23 -2.72,-0.3 1.51,-3.16 1.52,-7.28 0.07,-10.51zm-9.52 10.43c-0.76,0.06 -0.38,0.3 -2.42,0.3 -0.71,0 -1.59,-0.3 -2.09,-0.55 -1.05,-0.52 -2.15,-1.57 -2.62,-2.68 -1.85,-4.32 1.61,-8.69 6.25,-7.84 0.43,0.08 0.6,0.18 0.95,0.26 -0.34,0.66 -0.62,1.58 -0.81,2.36 -0.22,0.87 -0.31,1.89 -0.39,2.87 -0.11,1.32 0.56,4.09 1.13,5.28zm-9.98 -5.29c0,0.54 0.13,1.3 0.22,1.75 0.22,1.06 0.63,1.87 1.2,2.72 0.3,0.45 0.74,1.01 1.16,1.34l0.83 0.68c0.41,0.3 0.77,0.47 1.25,0.72 1.76,0.89 4.68,0.98 6.45,0.05 0.24,0.35 0.48,0.65 0.75,0.99 0.3,0.38 0.6,0.51 0.84,0.97 -0.71,0.17 -2.07,1.13 -4.69,1.13 -2.8,0 -5.44,-1.16 -7.27,-3 -0.93,-0.93 -1.52,-1.76 -2.13,-3.02 -0.27,-0.56 -0.5,-1.27 -0.65,-1.91 -1.01,-4.17 0.71,-8.43 4.08,-10.81 7.45,-5.26 17.96,1.17 16.02,10.58l-0.52 1.82c-0.26,-0.18 -0.44,-0.39 -0.62,-0.67 -1.39,-2.08 -0.89,-3.08 -1.09,-4.28 -0.25,-1.56 -0.63,-2.58 -1.55,-3.81 -0.63,-0.84 -0.6,-0.74 -1.34,-1.39 -1.22,-1.08 -3.32,-1.8 -5,-1.8 -0.54,0 -1.3,0.13 -1.75,0.22 -0.49,0.1 -1.02,0.31 -1.47,0.49 -0.46,0.2 -0.87,0.45 -1.26,0.71 -0.63,0.43 -1.58,1.37 -2.01,2 -0.89,1.31 -1.45,2.91 -1.45,4.52zm16.78 -9.07c3.17,-1.68 6.8,-1.42 9.88,0.25 1.2,0.65 2.54,1.93 3.3,3.04 2.03,2.94 2.45,6.76 0.95,10.09 -0.54,1.21 -1.2,2.15 -2.09,3.04 -0.96,0.95 -1.73,1.5 -3.02,2.12 -3.25,1.57 -7.19,1.11 -10.09,-0.84 -3.45,-2.31 -5.14,-6.54 -4.29,-10.67 0.14,-0.68 0.38,-1.21 0.52,-1.82l0.15 0c0.09,0.31 0.19,0.24 0.54,0.76 1.72,2.63 0.22,4.19 2,7.14 0.7,1.15 1.43,1.97 2.53,2.69 1.52,1 2.76,1.28 4.76,1.28 1.37,0 3.18,-0.69 4.2,-1.47 3.55,-2.67 4.34,-7.4 1.88,-10.96 -0.56,-0.8 -1.05,-1.29 -1.83,-1.87 -2.02,-1.48 -4.77,-1.93 -7.19,-1.11 -0.2,0.07 -0.41,0.17 -0.61,0.22 -0.24,-0.17 -0.53,-0.7 -0.78,-0.97l-0.81 -0.92zm-21.39 8.54c0,2.39 0.19,3.94 1.21,5.97 1.05,2.09 2.58,4.01 4.61,5.22 2.49,1.49 4.09,1.96 7.33,1.96 2.51,0 4.17,-0.85 6.12,-1.89 1.2,0.63 1.27,0.82 2.77,1.32 3.78,1.25 8.26,0.69 11.39,-1.67 0.32,-0.24 0.54,-0.42 0.85,-0.66l1.51 -1.52c0.24,-0.31 0.43,-0.55 0.65,-0.86 0.48,-0.64 0.76,-1.22 1.1,-1.92 2.13,-4.44 1.27,-10.39 -2.15,-13.83 -0.42,-0.43 -0.42,-0.5 -1.06,-1.06 -0.18,-0.16 -0.38,-0.31 -0.59,-0.47 -1.73,-1.31 -3.74,-2.15 -5.93,-2.45 -2.3,-0.32 -4.97,0.04 -7.02,1.05 -1.67,0.82 -1.2,0.87 -1.98,0.39 -0.24,-0.14 -0.43,-0.23 -0.69,-0.36 -0.48,-0.24 -1,-0.46 -1.5,-0.62 -1.32,-0.45 -2.21,-0.55 -3.62,-0.62l-1.85 0.04c-0.68,0.11 -1.19,0.18 -1.78,0.34 -3.07,0.82 -5.6,2.7 -7.33,5.29 -0.97,1.45 -2.04,3.95 -2.04,6.35z"/>
   <path class="fil0" d="M25.48 32.13c0,-0.66 0.49,-1.21 1.13,-1.21 0.83,0 1.07,0.71 1.86,1.32 0.23,0.18 0.41,0.35 0.56,0.57l1.67 -1.65c0.68,-0.59 1.88,-0.23 1.88,0.9 0,0.71 -0.95,1.44 -1.6,2.1l-1.87 1.9c-0.32,-0.21 -0.68,-0.63 -0.97,-0.92 -0.2,-0.21 -0.26,-0.25 -0.48,-0.43l-1.45 -1.42c-0.27,-0.28 -0.73,-0.65 -0.73,-1.16zm3.63 7.18c0.33,-0.22 1.92,-1.88 2.43,-2.39l0.8 -0.88c1.36,-1.35 3.37,-2.85 2.31,-5.37 -0.6,-1.43 -1.87,-2.09 -3.43,-2.09 -1.01,0 -1.66,0.58 -2.27,0.98 -0.8,-1.2 -4.39,-1.65 -5.54,1.26 -0.99,2.54 1.08,3.99 2.69,5.6l3.01 2.89z"/>
   <path class="fil0" d="M37.34 28.58c0.15,0.22 1.59,1.45 1.82,1.51 0.08,-0.29 1.71,-2.03 1.96,-2.42 -0.45,-0.3 -1.38,-1.19 -1.73,-1.43 -0.25,0.16 -1.81,2.06 -2.05,2.34z"/>
   <path class="fil0" d="M17.01 36.21l1.29 1.14c0.21,0.17 0.22,0.28 0.53,0.3 0.08,-0.29 1.64,-1.97 1.89,-2.34 -0.17,-0.24 -1.54,-1.38 -1.74,-1.51l-1.24 1.48c-0.23,0.28 -0.66,0.67 -0.73,0.93z"/>
   <path class="fil0" d="M17.01 27.67c0.07,0.27 0.04,0.14 0.2,0.33l1.77 2.09c0.28,-0.19 1.52,-1.19 1.74,-1.51l-1.49 -1.76c-0.22,-0.26 -0.27,-0.39 -0.55,-0.58 -0.19,0.12 -0.23,0.2 -0.41,0.35l-1.26 1.08z"/>
   <path class="fil0" d="M37.34 35.31l2.05 2.34c0.35,-0.24 1.28,-1.13 1.73,-1.44 -0.29,-0.43 -1.8,-2.07 -2.04,-2.41 -0.2,0.13 -1.58,1.28 -1.74,1.51z"/>
   <polygon class="fil0" points="14.82,33.27 17.99,33.27 17.99,31 14.82,31 "/>
   <polygon class="fil0" points="40.07,33.27 43.24,33.27 43.24,31 40.07,31 "/>
  </g>
 </g>
</svg>
