<?xml version="1.0" encoding="UTF-8"?>
<!DOCTYPE svg PUBLIC "-//W3C//DTD SVG 1.1//EN" "http://www.w3.org/Graphics/SVG/1.1/DTD/svg11.dtd">
<!-- Creator: CorelDRAW 2019 (64 Bit) -->
<svg xmlns="http://www.w3.org/2000/svg" xml:space="preserve" width="45px" height="45px" version="1.1" style="shape-rendering:geometricPrecision; text-rendering:geometricPrecision; image-rendering:optimizeQuality; fill-rule:evenodd; clip-rule:evenodd"
viewBox="0 0 45 45"
 xmlns:xlink="http://www.w3.org/1999/xlink">
 <defs>
  <style type="text/css">
   <![CDATA[
    .fil0 {fill:black}
   ]]>
  </style>
 </defs>
 <g id="Camada_x0020_1">
  <metadata id="CorelCorpID_0Corel-Layer"/>
  <g id="_2410308853408">
   <path class="fil0" d="M26.94 24.54c0.42,-0.2 1.4,-0.39 2.03,-0.39 4.99,0 7.36,5.67 4.78,9.16 -0.93,1.25 -2.45,2.32 -4.08,2.4 -2.18,0.12 -1.89,-0.23 -2.81,-0.31 1.56,-3.26 1.57,-7.52 0.08,-10.86zm-24.92 5l0 -0.32c0.02,-2.45 1.12,-5 2.1,-6.47 1.8,-2.69 4.4,-4.63 7.58,-5.47 0.61,-0.16 1.14,-0.25 1.84,-0.35l1.91 -0.05c1.46,0.08 2.38,0.18 3.74,0.64 0.52,0.17 1.06,0.39 1.55,0.64 0.28,0.14 0.47,0.23 0.71,0.38 0.82,0.5 0.33,0.44 2.05,-0.41 2.12,-1.04 4.89,-1.42 7.26,-1.08 2.26,0.31 4.34,1.17 6.13,2.54 0.22,0.16 0.43,0.31 0.61,0.48 0.66,0.58 0.66,0.65 1.1,1.09 3.53,3.56 4.42,9.71 2.22,14.29 -0.35,0.73 -0.64,1.33 -1.14,2 -0.23,0.31 -0.43,0.56 -0.68,0.88l-1.55 1.57c-0.32,0.25 -0.55,0.44 -0.88,0.68 -2.13,1.6 -4.85,2.41 -7.57,2.4 -1.43,0 -2.86,-0.23 -4.2,-0.67 -1.56,-0.52 -1.63,-0.71 -2.86,-1.36 -2.02,1.07 -3.73,1.95 -6.33,1.95 -3.35,0 -5.01,-0.49 -7.58,-2.02 -2.1,-1.26 -3.68,-3.24 -4.77,-5.4 -1.02,-2.04 -1.23,-3.6 -1.24,-5.94zm15.07 5.78c-0.78,0.07 -0.39,0.32 -2.5,0.32 -0.73,0 -1.64,-0.32 -2.16,-0.57 -1.08,-0.55 -2.22,-1.63 -2.7,-2.77 -1.91,-4.46 1.66,-8.98 6.46,-8.1 0.44,0.08 0.61,0.18 0.98,0.26 -0.35,0.68 -0.64,1.63 -0.84,2.44 -0.23,0.9 -0.32,1.95 -0.4,2.97 -0.11,1.36 0.57,4.23 1.16,5.45zm-10.31 -5.46c0,0.55 0.13,1.34 0.23,1.8 0.22,1.1 0.64,1.93 1.24,2.82 0.31,0.46 0.77,1.04 1.2,1.38l0.86 0.7c0.42,0.32 0.79,0.49 1.29,0.74 1.82,0.92 4.83,1.03 6.67,0.06 0.24,0.36 0.49,0.68 0.76,1.02 0.32,0.4 0.62,0.53 0.88,1.01 -0.74,0.17 -2.14,1.17 -4.85,1.17 -2.89,0 -5.62,-1.21 -7.52,-3.11 -0.96,-0.96 -1.57,-1.81 -2.19,-3.11 -0.28,-0.58 -0.52,-1.32 -0.68,-1.98 -1.04,-4.31 0.74,-8.71 4.22,-11.18 7.69,-5.44 18.57,1.22 16.56,10.94l-0.54 1.88c-0.27,-0.18 -0.46,-0.41 -0.65,-0.69 -1.42,-2.15 -0.91,-3.19 -1.11,-4.43 -0.27,-1.61 -0.66,-2.67 -1.61,-3.94 -0.65,-0.86 -0.62,-0.76 -1.38,-1.43 -1.27,-1.12 -3.44,-1.86 -5.18,-1.86 -0.55,0 -1.34,0.13 -1.8,0.23 -0.51,0.1 -1.06,0.31 -1.52,0.51 -0.48,0.2 -0.9,0.46 -1.3,0.73 -0.66,0.44 -1.64,1.41 -2.08,2.06 -0.92,1.35 -1.5,3.01 -1.5,4.68zm17.35 -9.38c3.27,-1.73 7.03,-1.46 10.2,0.26 1.24,0.67 2.63,2 3.42,3.15 2.1,3.03 2.53,6.98 0.99,10.42 -0.57,1.25 -1.25,2.22 -2.17,3.14 -0.99,0.99 -1.78,1.55 -3.12,2.2 -3.36,1.62 -7.43,1.14 -10.44,-0.87 -3.56,-2.39 -5.31,-6.76 -4.43,-11.03 0.15,-0.7 0.4,-1.25 0.55,-1.88l0.15 0c0.09,0.32 0.19,0.24 0.55,0.78 1.78,2.72 0.23,4.34 2.07,7.38 0.72,1.19 1.48,2.03 2.62,2.78 1.57,1.04 2.85,1.33 4.92,1.33 1.41,0 3.28,-0.72 4.34,-1.52 3.66,-2.76 4.49,-7.66 1.94,-11.33 -0.58,-0.83 -1.09,-1.34 -1.89,-1.93 -2.09,-1.53 -4.93,-2 -7.43,-1.15 -0.2,0.07 -0.42,0.17 -0.63,0.22 -0.25,-0.18 -0.55,-0.72 -0.8,-0.99l-0.84 -0.96z"/>
   <path class="fil0" d="M18.34 9.07c0,-0.68 0.51,-1.25 1.18,-1.25 0.86,0 1.1,0.73 1.92,1.36 0.24,0.19 0.42,0.36 0.58,0.6l1.72 -1.71c0.71,-0.61 1.95,-0.24 1.95,0.92 0,0.74 -0.98,1.5 -1.66,2.17l-1.94 1.98c-0.33,-0.23 -0.69,-0.66 -0.99,-0.96 -0.21,-0.21 -0.28,-0.26 -0.5,-0.44l-1.49 -1.48c-0.29,-0.28 -0.77,-0.67 -0.77,-1.19zm3.75 7.42c0.35,-0.22 1.99,-1.95 2.52,-2.47l0.82 -0.9c1.41,-1.41 3.49,-2.95 2.39,-5.56 -0.62,-1.47 -1.93,-2.16 -3.54,-2.16 -1.05,0 -1.72,0.6 -2.34,1.02 -0.84,-1.25 -4.55,-1.71 -5.73,1.3 -1.03,2.62 1.11,4.12 2.78,5.79l3.1 2.98z"/>
   <path class="fil0" d="M30.61 5.4c0.15,0.23 1.64,1.5 1.88,1.56 0.08,-0.3 1.76,-2.1 2.03,-2.5 -0.47,-0.31 -1.43,-1.23 -1.8,-1.48l0 0c-0.26,0.17 -1.86,2.14 -2.11,2.42z"/>
   <path class="fil0" d="M9.59 13.29l1.33 1.17c0.23,0.19 0.23,0.29 0.55,0.32 0.08,-0.31 1.7,-2.04 1.95,-2.43 -0.17,-0.25 -1.59,-1.42 -1.79,-1.56l-1.28 1.54c-0.24,0.29 -0.68,0.69 -0.76,0.96z"/>
   <path class="fil0" d="M9.59 4.46c0.08,0.28 0.05,0.14 0.21,0.34l1.83 2.16c0.29,-0.19 1.57,-1.23 1.79,-1.56l-1.54 -1.82c-0.22,-0.27 -0.27,-0.4 -0.57,-0.6l0 0c-0.19,0.13 -0.23,0.21 -0.41,0.37l-1.31 1.11z"/>
   <path class="fil0" d="M30.61 12.35l2.11 2.43c0.37,-0.25 1.33,-1.18 1.8,-1.49 -0.31,-0.45 -1.87,-2.14 -2.11,-2.5 -0.21,0.14 -1.64,1.33 -1.8,1.56z"/>
   <polygon class="fil0" points="7.33,10.24 10.61,10.24 10.61,7.9 7.33,7.9 "/>
   <polygon class="fil0" points="33.42,10.24 36.7,10.24 36.7,7.9 33.42,7.9 "/>
  </g>
 </g>
</svg>
