<?xml version="1.0" encoding="UTF-8"?>
<!DOCTYPE svg PUBLIC "-//W3C//DTD SVG 1.1//EN" "http://www.w3.org/Graphics/SVG/1.1/DTD/svg11.dtd">
<!-- Creator: CorelDRAW 2019 (64 Bit) -->
<svg xmlns="http://www.w3.org/2000/svg" xml:space="preserve" width="45px" height="45px" version="1.1" style="shape-rendering:geometricPrecision; text-rendering:geometricPrecision; image-rendering:optimizeQuality; fill-rule:evenodd; clip-rule:evenodd"
viewBox="0 0 45 45"
 xmlns:xlink="http://www.w3.org/1999/xlink">
 <defs>
  <style type="text/css">
   <![CDATA[
    .fil0 {fill:white}
   ]]>
  </style>
 </defs>
 <g id="Camada_x0020_1">
  <metadata id="CorelCorpID_0Corel-Layer"/>
  <g id="_2410389924720">
   <path class="fil0" d="M23.17 29.1l1.56 0c0.72,0 1.17,-0.16 1.8,-0.16 0.04,0.49 1.24,4.53 1.25,5.08l-4.61 0 0 -4.92zm0 13.9l-2.34 0 0 -6.56 -5.32 0c-0.05,0.62 -1.12,4.19 -1.17,4.77 -0.72,-0.02 -1.59,-0.49 -2.34,-0.55 0.02,-0.27 0.13,-0.51 0.2,-0.81l3 -11.69c-0.68,-0.16 -2.01,-1.13 -2.58,-1.56 -0.38,-0.3 -0.68,-0.65 -1.03,-1 -0.39,-0.39 -0.6,-0.69 -0.92,-1.11 -2.26,-2.99 -2.03,-5.89 -2.03,-9.46l-1.56 0 0 -2.34 29.84 0 0 2.34 -1.56 0c0,3.84 0.26,6.22 -2.03,9.46 -0.55,0.77 -1.24,1.55 -2,2.14 -0.55,0.43 -1.88,1.38 -2.53,1.53 0.02,0.27 0.13,0.51 0.2,0.81l2.61 10.13c0.07,0.27 0.12,0.51 0.2,0.81 0.08,0.3 0.17,0.47 0.19,0.75 -0.53,0.04 -1.76,0.53 -2.34,0.55 -0.05,-0.58 -1.12,-4.15 -1.18,-4.77l-5.31 0 0 6.56zm-5.7 -14.06c0.63,0 1.08,0.16 1.79,0.16l1.57 0 0 4.92 -4.61 0c0.01,-0.37 0.19,-0.91 0.28,-1.28l0.97 -3.8zm-6.41 -10.24l0 -3.67 21.88 0c0,2.38 0.27,4.98 -0.94,7.11 -0.52,0.92 -1.15,1.75 -1.93,2.44 -2.85,2.51 -5.9,2.17 -9.56,2.17 -2.14,0 -3.68,-0.27 -5.3,-1.25 -1.43,-0.86 -2.37,-1.89 -3.21,-3.36 -0.23,-0.41 -0.47,-1.11 -0.62,-1.57 -0.15,-0.48 -0.32,-1.25 -0.32,-1.87z"/>
   <polygon class="fil0" points="17.16,22.3 26.84,22.3 26.84,17.46 24.42,17.46 24.42,19.95 19.58,19.95 19.58,17.46 17.16,17.46 "/>
   <path class="fil0" d="M17.86 5.66c0,2.37 1.18,1.27 -0.16,4.06l2.19 1.02c0.22,-0.94 1.25,-1.87 0.7,-3.83 -0.22,-0.8 -0.31,-0.33 -0.31,-1.41 0,-0.37 0.53,-1.16 0.63,-1.56 -0.28,-0.07 -0.85,-0.35 -1.1,-0.47 -0.3,-0.15 -0.73,-0.38 -1.09,-0.47l0 0c-0.13,0.56 -0.86,1.39 -0.86,2.66z"/>
   <path class="fil0" d="M28.64 5.58c0,0.53 0,0.88 0.19,1.37 0.68,1.79 -0.04,1.46 -0.35,2.77 0.37,0.19 1.84,0.93 2.19,0.94 0.21,-0.9 1.23,-1.75 0.69,-3.74 -0.09,-0.33 -0.23,-0.55 -0.32,-0.93 -0.19,-0.8 0.57,-1.5 0.57,-1.89 0,-0.29 -0.37,-0.3 -0.96,-0.6 -0.29,-0.15 -0.86,-0.43 -1.15,-0.5l0 0c-0.11,0.22 -0.16,0.33 -0.27,0.59 -0.1,0.24 -0.19,0.38 -0.28,0.58 -0.16,0.37 -0.31,0.88 -0.31,1.41z"/>
   <path class="fil0" d="M12.47 5.74c0,0.29 0.11,0.86 0.2,1.12 0.39,1.16 0.61,1.04 -0.36,2.86l2.19 1.02c0.15,-0.63 1.35,-1.99 0.67,-4.03 -0.15,-0.43 -0.28,-0.52 -0.28,-1.05 0,-0.71 0.57,-1.13 0.62,-1.72 -0.56,-0.13 -1.66,-0.89 -2.18,-0.94l0 0c-0.15,0.63 -0.86,1.55 -0.86,2.74z"/>
   <path class="fil0" d="M23.25 5.66c0,0.51 0.03,0.77 0.18,1.22 0.45,1.33 0.43,1.25 -0.34,2.84l2.19 1.02c0.09,-0.37 0.4,-0.92 0.54,-1.26 0.36,-0.88 0.42,-1.65 0.17,-2.57 -0.23,-0.8 -0.32,-0.33 -0.32,-1.41 0,-0.37 0.53,-1.16 0.63,-1.56 -0.59,-0.14 -1.58,-0.8 -2.19,-0.94l0 0c-0.14,0.6 -0.86,1.44 -0.86,2.66z"/>
  </g>
 </g>
</svg>
