<?xml version="1.0" encoding="UTF-8"?>
<!DOCTYPE svg PUBLIC "-//W3C//DTD SVG 1.1//EN" "http://www.w3.org/Graphics/SVG/1.1/DTD/svg11.dtd">
<!-- Creator: CorelDRAW 2021 (64-Bit) -->
<svg xmlns="http://www.w3.org/2000/svg" xml:space="preserve" width="60px" height="85px" version="1.1" style="shape-rendering:geometricPrecision; text-rendering:geometricPrecision; image-rendering:optimizeQuality; fill-rule:evenodd; clip-rule:evenodd"
viewBox="0 0 60 84.86"
 xmlns:xlink="http://www.w3.org/1999/xlink"
 xmlns:xodm="http://www.corel.com/coreldraw/odm/2003">
 <defs>
  <style type="text/css">
   <![CDATA[
    .fil0 {fill:black}
   ]]>
  </style>
 </defs>
 <g id="Layer_x0020_1">
  <metadata id="CorelCorpID_0Corel-Layer"/>
  <g id="_3176792081312">
   <path class="fil0" d="M30.27 57.55l1.51 0c0.69,0 1.12,-0.15 1.74,-0.15 0.04,0.47 1.19,4.38 1.21,4.91l-4.46 0 0 -4.76zm-5.52 -0.15c0.61,0 1.05,0.15 1.74,0.15l1.51 0 0 4.76 -4.46 0c0.01,-0.36 0.18,-0.88 0.27,-1.24l0.94 -3.67zm-6.2 -9.91l0 -3.55 21.17 0c0,2.3 0.26,4.81 -0.91,6.88 -0.51,0.89 -1.12,1.69 -1.87,2.36 -2.75,2.43 -5.7,2.1 -9.24,2.1 -2.07,0 -3.56,-0.27 -5.14,-1.21 -1.38,-0.83 -2.29,-1.83 -3.1,-3.25 -0.23,-0.4 -0.46,-1.08 -0.6,-1.52 -0.15,-0.47 -0.31,-1.21 -0.31,-1.81zm-3.85 -3.55l1.51 0c0,3.46 -0.22,6.26 1.96,9.15 0.31,0.41 0.51,0.7 0.89,1.07 0.34,0.35 0.63,0.68 1,0.97 0.55,0.42 1.84,1.36 2.5,1.51l-2.9 11.31c-0.08,0.29 -0.18,0.52 -0.2,0.78 0.73,0.06 1.56,0.52 2.27,0.53 0.04,-0.56 1.08,-4 1.13,-4.61l5.14 0 0 6.35 2.27 0 0 -6.35 5.14 0c0.05,0.61 1.08,4.05 1.13,4.61 0.57,-0.01 1.75,-0.48 2.27,-0.53 -0.02,-0.27 -0.11,-0.43 -0.18,-0.72 -0.08,-0.3 -0.13,-0.52 -0.2,-0.79l-2.52 -9.79c-0.08,-0.29 -0.18,-0.53 -0.2,-0.79 0.63,-0.15 1.92,-1.07 2.45,-1.48 0.73,-0.57 1.41,-1.33 1.93,-2.07 2.22,-3.14 1.97,-5.44 1.97,-9.15l1.51 0 0 -2.27 -28.87 0 0 2.27z"/>
   <polygon class="fil0" points="24.45,50.97 33.82,50.97 33.82,46.29 31.48,46.29 31.48,48.7 26.79,48.7 26.79,46.29 24.45,46.29 "/>
   <path class="fil0" d="M25.13 34.87c0,2.3 1.14,1.23 -0.15,3.93l2.11 0.98c0.21,-0.9 1.22,-1.8 0.68,-3.7 -0.21,-0.77 -0.3,-0.31 -0.3,-1.36 0,-0.36 0.51,-1.12 0.6,-1.51 -0.26,-0.06 -0.81,-0.33 -1.05,-0.45 -0.3,-0.15 -0.72,-0.38 -1.06,-0.46 -0.13,0.54 -0.83,1.35 -0.83,2.57z"/>
   <path class="fil0" d="M35.56 34.8c0,0.51 0,0.85 0.18,1.33 0.66,1.72 -0.04,1.4 -0.33,2.67 0.35,0.19 1.78,0.9 2.11,0.91 0.2,-0.86 1.2,-1.69 0.67,-3.62 -0.09,-0.32 -0.23,-0.53 -0.31,-0.9 -0.18,-0.77 0.55,-1.45 0.55,-1.83 0,-0.27 -0.35,-0.29 -0.93,-0.58 -0.28,-0.14 -0.83,-0.41 -1.11,-0.48 -0.11,0.21 -0.15,0.32 -0.26,0.57 -0.09,0.23 -0.18,0.37 -0.27,0.57 -0.16,0.35 -0.3,0.84 -0.3,1.36z"/>
   <path class="fil0" d="M19.91 34.95c0,0.28 0.11,0.84 0.2,1.09 0.38,1.12 0.58,1 -0.35,2.76l2.12 0.98c0.14,-0.6 1.3,-1.92 0.64,-3.89 -0.14,-0.42 -0.27,-0.5 -0.27,-1.02 0,-0.68 0.56,-1.09 0.61,-1.66 -0.55,-0.13 -1.62,-0.87 -2.12,-0.91 -0.14,0.61 -0.83,1.5 -0.83,2.65z"/>
   <path class="fil0" d="M30.34 34.87c0,0.49 0.03,0.75 0.18,1.19 0.43,1.29 0.41,1.2 -0.33,2.74l2.12 0.98c0.08,-0.35 0.38,-0.88 0.52,-1.21 0.35,-0.85 0.41,-1.6 0.16,-2.49 -0.22,-0.77 -0.3,-0.31 -0.3,-1.36 0,-0.36 0.51,-1.12 0.6,-1.51 -0.57,-0.13 -1.53,-0.77 -2.12,-0.91 -0.13,0.58 -0.83,1.4 -0.83,2.57z"/>
  </g>
 </g>
</svg>
