<?xml version="1.0" encoding="UTF-8"?>
<!DOCTYPE svg PUBLIC "-//W3C//DTD SVG 1.1//EN" "http://www.w3.org/Graphics/SVG/1.1/DTD/svg11.dtd">
<!-- Creator: CorelDRAW 2019 (64 Bit) -->
<svg xmlns="http://www.w3.org/2000/svg" xml:space="preserve" width="45px" height="45px" version="1.1" style="shape-rendering:geometricPrecision; text-rendering:geometricPrecision; image-rendering:optimizeQuality; fill-rule:evenodd; clip-rule:evenodd"
viewBox="0 0 45 45"
 xmlns:xlink="http://www.w3.org/1999/xlink">
 <defs>
  <style type="text/css">
   <![CDATA[
    .fil0 {fill:black}
   ]]>
  </style>
 </defs>
 <g id="Camada_x0020_1">
  <metadata id="CorelCorpID_0Corel-Layer"/>
  <g id="_2410305251040">
   <path class="fil0" d="M6.37 38.63l1.48 -3.91 2.45 2.4 -2.89 1.14c-0.36,0.14 -0.66,0.28 -1.04,0.37zm-2.97 4.37l-0.11 0c-0.56,-0.02 -1.27,-0.62 -1.3,-1.59l0 -0.08c0.02,-0.33 0.22,-0.82 0.32,-1.06l1.1 -2.88c0.23,-0.62 0.51,-1.25 0.74,-1.92l6.68 -17.38c0.24,-0.64 0.53,-1.33 0.77,-1.98 0.23,-0.65 0.5,-1.24 0.74,-1.91 0.5,-1.42 0.9,-3.08 2.23,-3.08 0.85,0 1.11,0.45 1.59,0.92l3.59 3.6c1.62,1.62 3.18,3.18 4.8,4.8l7.23 7.23c0.82,0.82 2.09,1.8 2.09,2.67 0,0.9 -0.49,1.32 -1.21,1.6l-23.08 8.88c-0.64,0.23 -1.25,0.49 -1.92,0.74 -0.67,0.26 -1.27,0.48 -1.91,0.74 -1.09,0.43 -1.49,0.69 -2.35,0.7zm6.88 -14.69l6.42 6.39c-0.82,0.23 -2.37,0.99 -3.22,1.19l-4.36 -4.39c0.11,-0.51 0.36,-1.06 0.56,-1.59l0.6 -1.6zm2.42 -6.33c0.35,0.1 2.34,2.23 2.64,2.52l7.07 7.07c0.22,0.23 0.51,0.4 0.6,0.73 -0.27,0.02 -2.91,1.07 -3.12,1.17l-8.34 -8.38 1.15 -3.11zm1.31 -3.26c0.09,-0.32 0.17,-0.47 0.28,-0.77l0.61 -1.58c0.09,-0.22 0.19,-0.57 0.3,-0.79l14.24 14.2 -3.15 1.19 -12.28 -12.25z"/>
   <path class="fil0" d="M32.23 11.12c0,1 0.65,1.64 1.64,1.64 0.83,0 1.54,-0.95 2.29,-1.69l5.04 -5.04c0.72,-0.73 0.79,-0.79 0.8,-1.53l0 -0.2c-0.03,-0.56 -0.74,-1.28 -1.3,-1.3l-0.22 0c-0.7,0 -0.78,0.07 -1.47,0.76l-6.06 6.06c-0.35,0.34 -0.72,0.64 -0.72,1.3z"/>
   <path class="fil0" d="M24.81 5.34c0,1.08 1.63,1.22 -0.65,4.28 -0.73,0.98 -1.54,1.41 -1.54,2.36 0,1 1.47,2.66 3.26,0.53 1.27,-1.52 2.68,-3.25 2.68,-5.53 0,-1.81 -1.21,-3.97 -2.95,-3.02 -0.42,0.23 -0.8,0.78 -0.8,1.38z"/>
   <path class="fil0" d="M31.45 20.81c0,1.06 1.46,2.36 2.83,0.96 0.21,-0.22 0.29,-0.25 0.51,-0.43 1.09,-0.93 1.89,-1.7 3.46,-1.7 0.51,0 0.84,0.82 1.92,0.44 0.61,-0.22 1.12,-0.78 1.1,-1.53 -0.05,-1.51 -2.02,-2.11 -3.34,-2.11 -1.8,0 -3.36,1.02 -4.68,2.03 -0.7,0.52 -1.8,1.44 -1.8,2.34z"/>
   <path class="fil0" d="M35.9 25.11c0,2.24 3.13,2.24 3.13,0 0,-1.94 -3.13,-1.96 -3.13,0z"/>
   <path class="fil0" d="M19.57 9.09c2.58,0 2.11,-3.12 0.32,-3.12 -1.03,0 -1.66,0.66 -1.7,1.5 -0.05,0.85 0.8,1.62 1.38,1.62z"/>
   <path class="fil0" d="M27.07 16.12l0 0.4c0,0.72 0.69,1.4 1.41,1.4 0.51,0 0.86,0 1.31,-0.48 1.35,-1.44 -0.8,-3.59 -2.23,-2.24 -0.19,0.18 -0.49,0.59 -0.49,0.92z"/>
  </g>
 </g>
</svg>
