<?xml version="1.0" encoding="UTF-8"?>
<!DOCTYPE svg PUBLIC "-//W3C//DTD SVG 1.1//EN" "http://www.w3.org/Graphics/SVG/1.1/DTD/svg11.dtd">
<!-- Creator: CorelDRAW 2021 (64-Bit) -->
<svg xmlns="http://www.w3.org/2000/svg" xml:space="preserve" width="60px" height="85px" version="1.1" style="shape-rendering:geometricPrecision; text-rendering:geometricPrecision; image-rendering:optimizeQuality; fill-rule:evenodd; clip-rule:evenodd"
viewBox="0 0 60 84.86"
 xmlns:xlink="http://www.w3.org/1999/xlink"
 xmlns:xodm="http://www.corel.com/coreldraw/odm/2003">
 <defs>
  <style type="text/css">
   <![CDATA[
    .fil0 {fill:white}
   ]]>
  </style>
 </defs>
 <g id="Layer_x0020_1">
  <metadata id="CorelCorpID_0Corel-Layer"/>
  <g id="_3176926775936">
   <path class="fil0" d="M14.05 61.17l1.43 -3.78 2.36 2.32 -2.79 1.1c-0.35,0.14 -0.63,0.27 -1,0.36zm3.77 -9.98l6.22 6.18c-0.79,0.22 -2.3,0.96 -3.12,1.15l-4.21 -4.25c0.1,-0.49 0.35,-1.03 0.54,-1.54l0.57 -1.54zm2.35 -6.12c0.33,0.09 2.26,2.15 2.55,2.43l6.84 6.85c0.22,0.21 0.5,0.38 0.59,0.69 -0.27,0.03 -2.82,1.04 -3.03,1.14l-8.07 -8.11 1.12 -3zm1.26 -3.16c0.09,-0.31 0.18,-0.46 0.28,-0.75l0.59 -1.52c0.08,-0.22 0.18,-0.56 0.29,-0.77l13.77 13.74 -3.04 1.15 -11.89 -11.85zm-11.62 21.9c0,0.99 0.73,1.59 1.29,1.59 0.89,0 1.26,-0.25 2.34,-0.68 0.62,-0.25 1.2,-0.46 1.86,-0.71 0.64,-0.25 1.24,-0.5 1.85,-0.72l22.33 -8.59c0.7,-0.27 1.17,-0.68 1.17,-1.55 0,-0.84 -1.22,-1.79 -2.02,-2.58l-6.99 -7c-1.57,-1.56 -3.08,-3.08 -4.65,-4.64l-3.48 -3.48c-0.46,-0.46 -0.71,-0.89 -1.53,-0.89 -1.29,0 -1.67,1.6 -2.16,2.98 -0.23,0.65 -0.49,1.22 -0.72,1.85 -0.23,0.63 -0.51,1.29 -0.73,1.91l-6.47 16.82c-0.23,0.64 -0.49,1.25 -0.72,1.85l-1.07 2.78c-0.09,0.25 -0.3,0.74 -0.3,1.06z"/>
   <path class="fil0" d="M39.06 34.56c0,0.96 0.63,1.59 1.59,1.59 0.81,0 1.49,-0.93 2.21,-1.65l4.88 -4.87c0.75,-0.75 0.77,-0.77 0.77,-1.65 0,-0.55 -0.73,-1.28 -1.28,-1.28l-0.04 0c-0.81,0 -0.86,0.02 -1.57,0.74l-5.86 5.85c-0.33,0.34 -0.7,0.63 -0.7,1.27z"/>
   <path class="fil0" d="M31.88 28.97c0,1.04 1.58,1.18 -0.62,4.13 -0.71,0.96 -1.49,1.37 -1.49,2.29 0,0.97 1.42,2.58 3.15,0.51 1.22,-1.47 2.59,-3.14 2.59,-5.35 0,-1.75 -1.17,-3.84 -2.85,-2.92 -0.41,0.22 -0.78,0.75 -0.78,1.34z"/>
   <path class="fil0" d="M38.31 43.93c0,1.02 1.42,2.29 2.74,0.93 0.2,-0.21 0.27,-0.24 0.49,-0.42 1.06,-0.9 1.83,-1.64 3.34,-1.64 0.5,0 0.82,0.79 1.86,0.42 0.6,-0.21 1.09,-0.75 1.07,-1.47 -0.05,-1.47 -1.95,-2.05 -3.23,-2.05 -1.75,0 -3.25,0.99 -4.53,1.96 -0.68,0.51 -1.74,1.4 -1.74,2.27z"/>
   <path class="fil0" d="M42.62 48.09c0,2.16 3.02,2.16 3.02,0 0,-1.88 -3.02,-1.89 -3.02,0z"/>
   <path class="fil0" d="M26.82 32.6c2.49,0 2.04,-3.03 0.3,-3.03 -0.99,0 -1.6,0.64 -1.64,1.45 -0.05,0.83 0.78,1.58 1.34,1.58z"/>
   <path class="fil0" d="M34.08 39.4l0 0.38c0,0.69 0.66,1.36 1.36,1.36 0.49,0 0.83,0 1.27,-0.47 1.3,-1.39 -0.78,-3.47 -2.17,-2.16 -0.18,0.17 -0.46,0.57 -0.46,0.89z"/>
  </g>
 </g>
</svg>
