<?xml version="1.0" encoding="UTF-8"?>
<!DOCTYPE svg PUBLIC "-//W3C//DTD SVG 1.1//EN" "http://www.w3.org/Graphics/SVG/1.1/DTD/svg11.dtd">
<!-- Creator: CorelDRAW 2021 (64-Bit) -->
<svg xmlns="http://www.w3.org/2000/svg" xml:space="preserve" width="60px" height="85px" version="1.1" style="shape-rendering:geometricPrecision; text-rendering:geometricPrecision; image-rendering:optimizeQuality; fill-rule:evenodd; clip-rule:evenodd"
viewBox="0 0 60 84.86"
 xmlns:xlink="http://www.w3.org/1999/xlink"
 xmlns:xodm="http://www.corel.com/coreldraw/odm/2003">
 <defs>
  <style type="text/css">
   <![CDATA[
    .fil0 {fill:white}
   ]]>
  </style>
 </defs>
 <g id="Layer_x0020_1">
  <metadata id="CorelCorpID_0Corel-Layer"/>
  <path class="fil0" d="M35.52 66.43c0,-1.88 0.72,-3.92 1.75,-5.28 1,-1.33 2.22,-2.5 3.77,-3.19 1.8,-0.8 2.68,-0.91 4.69,-0.91 0.46,0 0.55,0.08 0.98,0.08 -0.5,0.94 -0.77,1.51 -1.38,2.4 -0.69,1.02 -1.07,1.34 -1.71,2.15 -0.87,1.09 -3.38,2.78 -4.37,3.33 -0.68,0.38 -3,1.4 -3.73,1.42zm-19.8 -9.3l1.96 -0.08c1.38,0 2.74,0.48 3.71,0.91 1.53,0.68 2.77,1.86 3.77,3.18 1.01,1.35 1.74,3.41 1.74,5.29 -0.52,-0.05 -1.44,-0.4 -1.91,-0.59 -0.62,-0.24 -1.2,-0.49 -1.76,-0.8 -1.18,-0.63 -2.08,-1.28 -3.06,-2.08l-1.6 -1.58c-0.65,-0.77 -0.78,-0.84 -1.45,-1.8 -0.59,-0.85 -0.92,-1.53 -1.4,-2.45zm26.3 -9.45l6.28 0 0 2.19 -6.28 0 0 -2.19zm-27.89 0l6.27 0 0 2.19 -6.27 0 0 -2.19zm0 -4.53l34.17 0 0 2.26 -7.56 0c-0.55,0 -0.99,0.55 -0.99,1.14l0 4.61c0,0.55 0.53,1.06 1.28,1.06l7.11 0c-0.06,0.12 -0.21,1.13 -0.27,1.39 -0.1,0.53 -0.22,0.85 -0.33,1.33 -0.35,-0.01 -1.43,-0.23 -2.34,-0.23 -1.86,0 -3.68,0.48 -4.97,1.08 -4.09,1.91 -7.05,5.92 -7.05,11.09 -2.4,0.2 -1.53,0.2 -3.93,0 0,-6.81 -5.4,-12.17 -12.02,-12.17 -0.91,0 -2,0.22 -2.34,0.23 -0.11,-0.48 -0.23,-0.8 -0.34,-1.33 -0.05,-0.26 -0.21,-1.27 -0.27,-1.39l7.03 0c0.48,0 0.67,-0.05 0.94,-0.28 0.21,-0.17 0.42,-0.44 0.42,-0.78l0 -4.61c0,-0.59 -0.44,-1.14 -0.98,-1.14l-7.56 0 0 -2.26zm0.08 -4.54l34.09 0 0 2.19 -34.09 0 0 -2.19zm-2.35 -1.28l0 13.22c0,4.82 2.31,9.75 5.62,13.06l1.8 1.6c1.17,0.93 2.26,1.55 3.64,2.25 1.78,0.89 4.91,1.84 7.54,1.84l1.51 0c4.19,0 9.11,-2.08 12.04,-4.82l0.94 -0.87c3.27,-3.27 5.61,-8.2 5.61,-13.06l0 -13.22c0,-0.47 -0.52,-0.99 -0.98,-0.99l-36.73 0c-0.47,0 -0.99,0.52 -0.99,0.99z"/>
 </g>
</svg>
