<?xml version="1.0" encoding="UTF-8"?>
<!DOCTYPE svg PUBLIC "-//W3C//DTD SVG 1.1//EN" "http://www.w3.org/Graphics/SVG/1.1/DTD/svg11.dtd">
<!-- Creator: CorelDRAW 2019 (64 Bit) -->
<svg xmlns="http://www.w3.org/2000/svg" xml:space="preserve" width="45px" height="45px" version="1.1" style="shape-rendering:geometricPrecision; text-rendering:geometricPrecision; image-rendering:optimizeQuality; fill-rule:evenodd; clip-rule:evenodd"
viewBox="0 0 45 45"
 xmlns:xlink="http://www.w3.org/1999/xlink">
 <defs>
  <style type="text/css">
   <![CDATA[
    .fil0 {fill:white}
   ]]>
  </style>
 </defs>
 <g id="Camada_x0020_1">
  <metadata id="CorelCorpID_0Corel-Layer"/>
  <path class="fil0" d="M26.45 37.06c0,-1.94 0.75,-4.05 1.81,-5.46 1.04,-1.36 2.29,-2.58 3.9,-3.29 1.86,-0.82 2.77,-0.94 4.84,-0.94 0.48,0 0.57,0.08 1.02,0.08 -0.52,0.98 -0.8,1.56 -1.42,2.49 -0.72,1.05 -1.11,1.38 -1.77,2.21 -0.91,1.13 -3.5,2.88 -4.52,3.45 -0.71,0.4 -3.1,1.45 -3.86,1.46zm15.55 -30.1l0 13.77c-0.02,5 -2.44,10.06 -5.8,13.42l-0.98 0.9c-3.02,2.83 -8.11,4.98 -12.44,4.98l-1.56 0c-2.72,0 -5.95,-0.97 -7.79,-1.9 -1.42,-0.72 -2.56,-1.36 -3.76,-2.33l-1.87 -1.65c-3.4,-3.4 -5.78,-8.46 -5.8,-13.41l0 -13.78c0.02,-0.48 0.54,-0.99 1.01,-0.99l37.98 0c0.47,0 0.99,0.51 1.01,0.99zm-36.02 20.49l2.04 -0.08c1.42,0 2.82,0.5 3.82,0.94 1.59,0.71 2.87,1.93 3.9,3.29 1.05,1.39 1.81,3.53 1.81,5.46 -0.54,-0.04 -1.49,-0.41 -1.98,-0.6 -0.64,-0.25 -1.24,-0.51 -1.83,-0.83 -1.21,-0.65 -2.14,-1.33 -3.16,-2.15l-1.65 -1.63c-0.67,-0.8 -0.8,-0.87 -1.49,-1.86 -0.61,-0.88 -0.95,-1.59 -1.46,-2.54zm27.19 -9.76l6.49 0 0 2.26 -6.49 0 0 -2.26zm-28.83 0l6.49 0 0 2.26 -6.49 0 0 -2.26zm0 -4.69l35.32 0 0 2.34 -7.82 0c-0.56,0 -1.01,0.57 -1.01,1.18l0 4.76c0,0.57 0.54,1.1 1.32,1.1l7.35 -0.01c-0.06,0.14 -0.23,1.17 -0.28,1.44 -0.11,0.55 -0.23,0.89 -0.34,1.38 -0.36,-0.01 -1.48,-0.24 -2.43,-0.24 -1.91,0 -3.79,0.5 -5.13,1.12 -4.22,1.97 -7.29,6.12 -7.29,11.46 -2.48,0.21 -1.58,0.21 -4.06,0 0,-7.03 -5.58,-12.58 -12.42,-12.58 -0.94,0 -2.07,0.23 -2.43,0.24 -0.11,-0.49 -0.23,-0.83 -0.34,-1.38 -0.05,-0.27 -0.22,-1.3 -0.28,-1.44l7.27 0.01c0.49,0 0.68,-0.06 0.97,-0.29 0.22,-0.18 0.43,-0.46 0.43,-0.81l0 -4.76c0,-0.61 -0.45,-1.18 -1.01,-1.18l-7.82 0 0 -2.34zm0.08 -4.69l35.24 0 0 2.27 -35.24 0 0 -2.27z"/>
 </g>
</svg>
