<?xml version="1.0" encoding="UTF-8"?>
<!DOCTYPE svg PUBLIC "-//W3C//DTD SVG 1.1//EN" "http://www.w3.org/Graphics/SVG/1.1/DTD/svg11.dtd">
<!-- Creator: CorelDRAW 2021 (64-Bit) -->
<svg xmlns="http://www.w3.org/2000/svg" xml:space="preserve" width="60px" height="85px" version="1.1" style="shape-rendering:geometricPrecision; text-rendering:geometricPrecision; image-rendering:optimizeQuality; fill-rule:evenodd; clip-rule:evenodd"
viewBox="0 0 60 84.86"
 xmlns:xlink="http://www.w3.org/1999/xlink"
 xmlns:xodm="http://www.corel.com/coreldraw/odm/2003">
 <defs>
  <style type="text/css">
   <![CDATA[
    .fil0 {fill:black}
   ]]>
  </style>
 </defs>
 <g id="Layer_x0020_1">
  <metadata id="CorelCorpID_0Corel-Layer"/>
  <g id="_1753433155632">
   <path class="fil0" d="M19.74 54.73l8.47 0c-0.18,0.78 -0.93,1.65 -1.54,2.1 -2.07,1.55 -4.85,1.04 -6.3,-0.91 -0.41,-0.55 -0.41,-0.69 -0.63,-1.19zm-3.33 -10.81l0 9.75c0,2.55 1.74,4.84 3.69,6.07 0.51,0.31 1.65,0.83 2.36,0.89l0 19.2c0,0.92 0.77,1.51 1.29,1.51l0.45 0c0.55,0 1.29,-0.73 1.29,-1.29l0 -19.42c0.94,-0.02 2.51,-0.94 3.29,-1.54 0.29,-0.23 0.58,-0.56 0.84,-0.82 0.86,-0.86 1.91,-2.9 1.91,-4.6l0 -9.75c0,-0.55 -0.73,-1.28 -1.28,-1.28l-0.46 0c-0.55,0 -1.28,0.73 -1.28,1.28l0 7.79 -3.02 0 0 -7.79c0,-0.55 -0.74,-1.28 -1.29,-1.28l-0.45 0c-0.56,0 -1.29,0.73 -1.29,1.28l0 7.79 -3.02 0 0 -7.79c0,-0.55 -0.73,-1.28 -1.29,-1.28l-0.45 0c-0.55,0 -1.29,0.73 -1.29,1.28z"/>
   <path class="fil0" d="M37.58 53.22c0,-0.81 0.15,-2 0.33,-2.69 0.12,-0.46 0.19,-0.78 0.35,-1.16 0.3,-0.75 0.54,-1.32 1.03,-1.99 2.04,-2.73 4.69,-2.01 6.23,0.93 1.13,2.16 2.04,7.6 -0.53,8.92 -0.24,0.13 -0.54,0.23 -0.83,0.3 -1.39,0.35 -4.5,0.41 -5.58,-0.78 -0.8,-0.88 -1,-2.36 -1,-3.53zm-3.02 -0.6c0,2.41 0.09,4.07 1.61,6.01 0.87,1.11 2.95,2.07 4.43,2.07l0 19.35c0,0.56 0.73,1.29 1.29,1.29l0.45 0c0.55,0 1.29,-0.73 1.29,-1.29l0 -19.35c1.43,0 3.5,-0.92 4.39,-2.03 2.73,-3.39 1.77,-9.51 -0.31,-12.63 -1.12,-1.68 -3.04,-3.4 -5.22,-3.4 -1.55,0 -2.54,0.2 -3.85,1.13 -2.58,1.83 -4.08,5.7 -4.08,8.85z"/>
  </g>
 </g>
</svg>
