<?xml version="1.0" encoding="UTF-8"?>
<!DOCTYPE svg PUBLIC "-//W3C//DTD SVG 1.1//EN" "http://www.w3.org/Graphics/SVG/1.1/DTD/svg11.dtd">
<!-- Creator: CorelDRAW 2019 (64 Bit) -->
<svg xmlns="http://www.w3.org/2000/svg" xml:space="preserve" width="45px" height="45px" version="1.1" style="shape-rendering:geometricPrecision; text-rendering:geometricPrecision; image-rendering:optimizeQuality; fill-rule:evenodd; clip-rule:evenodd"
viewBox="0 0 45 45"
 xmlns:xlink="http://www.w3.org/1999/xlink">
 <defs>
  <style type="text/css">
   <![CDATA[
    .fil0 {fill:black}
   ]]>
  </style>
 </defs>
 <g id="Camada_x0020_1">
  <metadata id="CorelCorpID_0Corel-Layer"/>
  <g id="_2410392566832">
   <path class="fil0" d="M8.21 15.49l8.75 0c-0.19,0.8 -0.96,1.69 -1.58,2.16 -2.15,1.61 -5.02,1.08 -6.53,-0.93 -0.42,-0.57 -0.41,-0.72 -0.64,-1.23zm-2.14 -12.5l0.52 0c0.57,0.02 1.31,0.76 1.31,1.32l0 8.05 3.12 0 0 -8.05c0,-0.56 0.73,-1.3 1.3,-1.32l0.53 0c0.56,0.02 1.3,0.76 1.3,1.32l0 8.05 3.12 0 0 -8.05c0,-0.56 0.73,-1.3 1.3,-1.32l0.53 0c0.57,0.02 1.3,0.76 1.3,1.32l0 10.08c0,1.75 -1.09,3.86 -1.98,4.75 -0.27,0.28 -0.57,0.61 -0.87,0.85 -0.8,0.62 -2.43,1.57 -3.4,1.59l0 20.08c0,0.56 -0.74,1.3 -1.3,1.33l-0.53 0c-0.53,-0.02 -1.3,-0.63 -1.3,-1.56l0 -19.85c-0.74,-0.06 -1.92,-0.59 -2.44,-0.92 -2.02,-1.27 -3.81,-3.63 -3.81,-6.27l0 -10.08c0,-0.56 0.73,-1.3 1.3,-1.32z"/>
   <path class="fil0" d="M26.65 13.92c0,-0.84 0.16,-2.06 0.34,-2.78 0.12,-0.47 0.2,-0.8 0.36,-1.2 0.31,-0.77 0.55,-1.36 1.07,-2.05 2.11,-2.82 4.84,-2.08 6.43,0.95 1.17,2.24 2.11,7.86 -0.54,9.23 -0.25,0.13 -0.56,0.23 -0.86,0.31 -1.43,0.37 -4.65,0.42 -5.77,-0.8 -0.83,-0.92 -1.03,-2.45 -1.03,-3.66zm4.94 -10.93l0.18 0c2.24,0.02 4.2,1.79 5.35,3.51 2.15,3.23 3.14,9.56 0.32,13.06 -0.92,1.15 -3.06,2.1 -4.54,2.1l0 20c0,0.56 -0.73,1.3 -1.3,1.33l-0.53 0c-0.57,-0.03 -1.3,-0.77 -1.3,-1.33l0 -20c-1.53,0 -3.68,-1 -4.57,-2.14 -1.58,-2.01 -1.68,-3.73 -1.68,-6.22 0,-3.25 1.56,-7.26 4.22,-9.14 1.32,-0.93 2.32,-1.16 3.85,-1.17z"/>
  </g>
 </g>
</svg>
