<?xml version="1.0" encoding="UTF-8"?>
<!DOCTYPE svg PUBLIC "-//W3C//DTD SVG 1.1//EN" "http://www.w3.org/Graphics/SVG/1.1/DTD/svg11.dtd">
<!-- Creator: CorelDRAW 2021 (64-Bit) -->
<svg xmlns="http://www.w3.org/2000/svg" xml:space="preserve" width="60px" height="85px" version="1.1" style="shape-rendering:geometricPrecision; text-rendering:geometricPrecision; image-rendering:optimizeQuality; fill-rule:evenodd; clip-rule:evenodd"
viewBox="0 0 60 84.86"
 xmlns:xlink="http://www.w3.org/1999/xlink"
 xmlns:xodm="http://www.corel.com/coreldraw/odm/2003">
 <defs>
  <style type="text/css">
   <![CDATA[
    .fil0 {fill:white}
   ]]>
  </style>
 </defs>
 <g id="Layer_x0020_1">
  <metadata id="CorelCorpID_0Corel-Layer"/>
  <path class="fil0" d="M12.84 57.63l0 -9.97 29.63 0 0 9.97c0,2.16 -1.48,3.63 -3.63,3.63l-22.38 0c-2.15,0 -3.62,-1.47 -3.62,-3.63zm3.85 -16.78l21.92 0c2.42,0 4.05,0.9 5.22,2.65 0.26,0.4 0.7,1.29 0.75,1.89l-33.86 0c0.09,-1.09 1.11,-2.6 1.96,-3.25 1.07,-0.82 2.13,-1.29 4.01,-1.29zm10.96 -4.53c0.29,0 0.93,0.14 1.15,0.22 0.35,0.12 0.59,0.27 0.87,0.48 0.45,0.34 1.01,0.96 1.16,1.57l-6.35 0c0.19,-0.85 1.19,-1.77 2.03,-2.05 0.21,-0.08 0.85,-0.22 1.14,-0.22zm-5.59 2.27c-1.7,0 -6.28,-0.14 -7.73,0.21 -3.3,0.8 -6.03,4.02 -6.03,7.27l0 1.59 2.27 0 0 2.27 -2.27 0 0 2.26 2.27 0 0 6.05c0,2.64 2.65,5.29 5.29,5.29l23.58 0c2.64,0 5.29,-2.66 5.29,-5.29l0 -6.05 2.27 0 0 -2.26 -2.27 0 0 -2.27 2.27 0 0 -0.11 0 -0.1c0,-2.12 -0.02,-3.38 -1.33,-5.34 -0.64,-0.97 -1.71,-2 -2.75,-2.54 -0.6,-0.31 -1.16,-0.57 -1.89,-0.76 -1.47,-0.37 -6.06,-0.22 -7.79,-0.22 -0.28,-0.59 -0.41,-1.95 -1.76,-3.08 -1.72,-1.44 -4.08,-1.95 -6.15,-0.98 -0.62,0.29 -0.98,0.55 -1.47,0.95 -1.37,1.1 -1.52,2.53 -1.8,3.11z"/>
 </g>
</svg>
