<?xml version="1.0" encoding="UTF-8"?>
<!DOCTYPE svg PUBLIC "-//W3C//DTD SVG 1.1//EN" "http://www.w3.org/Graphics/SVG/1.1/DTD/svg11.dtd">
<!-- Creator: CorelDRAW 2019 (64 Bit) -->
<svg xmlns="http://www.w3.org/2000/svg" xml:space="preserve" width="45px" height="45px" version="1.1" style="shape-rendering:geometricPrecision; text-rendering:geometricPrecision; image-rendering:optimizeQuality; fill-rule:evenodd; clip-rule:evenodd"
viewBox="0 0 45 45"
 xmlns:xlink="http://www.w3.org/1999/xlink">
 <defs>
  <style type="text/css">
   <![CDATA[
    .fil0 {fill:white}
   ]]>
  </style>
 </defs>
 <g id="Camada_x0020_1">
  <metadata id="CorelCorpID_0Corel-Layer"/>
  <path class="fil0" d="M6.69 32.15l0 -10.31 30.62 0 0 10.31c0,2.23 -1.52,3.75 -3.75,3.75l-23.12 0c-2.23,0 -3.75,-1.52 -3.75,-3.75zm35.31 -10.91l0 0.6 -2.34 0 0 2.34 2.34 0 0 2.35 -2.34 0 0 6.25c0,2.72 -2.75,5.47 -5.47,5.47l-24.38 0c-2.72,0 -5.47,-2.75 -5.47,-5.47l0 -6.25 -2.34 0 0 -2.35 2.34 0 0 -2.34 -2.34 0 0 -1.69c0.02,-3.34 2.84,-6.65 6.23,-7.47 1.5,-0.36 6.23,-0.22 7.99,-0.22 0.29,-0.6 0.45,-2.08 1.86,-3.21 0.51,-0.41 0.88,-0.68 1.52,-0.98 2.14,-1 4.58,-0.48 6.36,1.01 1.4,1.17 1.53,2.57 1.82,3.18 1.78,0 6.53,-0.15 8.05,0.24 0.75,0.19 1.34,0.46 1.95,0.78 1.08,0.55 2.18,1.63 2.85,2.62 1.27,1.91 1.36,3.17 1.37,5.14zm-31.33 -6.43l22.66 0c2.5,0 4.19,0.92 5.39,2.73 0.28,0.41 0.73,1.33 0.78,1.95l-35 0c0.09,-1.12 1.14,-2.68 2.03,-3.36 1.11,-0.84 2.2,-1.32 4.14,-1.32zm11.33 -4.69c0.3,0 0.97,0.15 1.18,0.22 0.37,0.13 0.62,0.29 0.91,0.5 0.47,0.35 1.05,1 1.19,1.62l-6.56 0c0.2,-0.87 1.23,-1.83 2.1,-2.12 0.21,-0.07 0.88,-0.22 1.18,-0.22z"/>
 </g>
</svg>
