<?xml version="1.0" encoding="UTF-8"?>
<!DOCTYPE svg PUBLIC "-//W3C//DTD SVG 1.1//EN" "http://www.w3.org/Graphics/SVG/1.1/DTD/svg11.dtd">
<!-- Creator: CorelDRAW 2019 (64 Bit) -->
<svg xmlns="http://www.w3.org/2000/svg" xml:space="preserve" width="45px" height="45px" version="1.1" style="shape-rendering:geometricPrecision; text-rendering:geometricPrecision; image-rendering:optimizeQuality; fill-rule:evenodd; clip-rule:evenodd"
viewBox="0 0 45 45"
 xmlns:xlink="http://www.w3.org/1999/xlink">
 <defs>
  <style type="text/css">
   <![CDATA[
    .fil0 {fill:black}
   ]]>
  </style>
 </defs>
 <g id="Camada_x0020_1">
  <metadata id="CorelCorpID_0Corel-Layer"/>
  <g id="_2410390612704">
   <path class="fil0" d="M33.42 26.2c0,-0.32 0.15,-0.85 0.25,-1.09 0.08,-0.21 0.39,-0.67 0.56,-0.84 0.18,-0.18 0.54,-0.42 0.8,-0.53 2.15,-0.93 3.86,0.82 3.86,2.46 0,1.64 -1.69,3.33 -3.82,2.49 -0.21,-0.09 -0.67,-0.39 -0.84,-0.57 -0.43,-0.43 -0.81,-1.29 -0.81,-1.92zm7.47 16.8l-0.14 0c-0.48,-0.03 -0.95,-0.3 -1.06,-0.88 -0.12,-0.63 0.12,-8.36 -0.08,-9.29 -0.21,-0.94 -0.98,-1.55 -2.12,-1.55 -1.26,0 -2.88,-0.23 -3.66,0.64l-2.08 2.53c-1.37,1.74 -1.18,1.51 -3.09,1.51 -0.62,0 -1.75,-0.05 -2.2,0.07 -1.2,0.35 -1.17,2.28 0.56,2.28l5.39 0c0.44,0 2.39,-2.74 3.2,-2.74 0.76,0 1.33,0.38 1.33,1.02 0,0.92 -0.34,1 -1.08,1.74 -1.96,1.96 -1.67,1.23 -1.65,3.26 0,0.93 -0.46,1.34 -0.97,1.41l-0.32 0c-0.54,-0.07 -1.06,-0.48 -1.06,-1.02l0 -1.33 -19.69 0 0 1.33c0,0.56 -0.51,0.96 -1.06,1.02l-0.25 0c-0.3,-0.03 -0.6,-0.17 -0.81,-0.46 -0.38,-0.49 -0.17,-1.42 -0.22,-2.29 -0.02,-0.42 -0.2,-0.46 -0.45,-0.71 -0.47,-0.46 -2.29,-2.06 -2.29,-2.64 0,-0.93 0.4,-1.33 1.33,-1.33 0.57,0 1.82,1.47 2.4,2.05 0.17,0.17 0.57,0.69 0.81,0.69l5.39 0c1.74,0 1.77,-1.98 0.49,-2.29 -0.45,-0.11 -1.67,-0.06 -2.29,-0.06 -1.81,0 -1.64,0.13 -3,-1.6l-2.06 -2.48c-0.35,-0.36 -0.96,-0.6 -1.66,-0.6 -1.68,0 -3.7,-0.33 -4.09,1.61 -0.19,0.95 0.06,8.75 -0.08,9.29 -0.14,0.53 -0.58,0.79 -1.03,0.82l-0.17 0c-0.57,-0.04 -1.12,-0.41 -1.12,-1.02l0 -8.99c0,-1.48 0.92,-2.69 2.04,-3.43 -0.89,-1.32 -1.25,-1.56 -1.25,-3.68 0,-0.96 0.42,-1.95 0.93,-2.65 0.3,-0.42 0.47,-0.61 0.87,-0.93 2.34,-1.85 5.51,-1.47 7.17,0.63 0.66,0.83 1.18,1.79 1.18,2.95 0,2.36 -0.51,2.54 -1.48,3.99 0.4,0.27 2.48,2.84 2.86,3.31 0.21,0.25 0.18,0.4 0.57,0.44 1.35,0.14 3.04,-0.4 4.43,0.66 0.66,0.5 1.44,1.5 1.44,2.62 0,1.12 -0.11,0.86 -0.16,1.41l2.81 0c-0.37,-1.61 -0.11,-2.98 1.28,-4.03 0.97,-0.73 1.81,-0.66 3.41,-0.66 0.25,0 0.88,0.03 1.09,-0.01 0.32,-0.05 0.34,-0.25 0.53,-0.48l2.31 -2.77c0.17,-0.2 0.32,-0.36 0.52,-0.49 -0.33,-0.5 -0.71,-0.82 -0.99,-1.43 -0.65,-1.4 -0.69,-3.1 0,-4.48 0.4,-0.79 0.95,-1.44 1.66,-1.94 1.76,-1.22 4.15,-1.23 5.9,0.04l1.2 1.21c1.05,1.5 1.18,3.32 0.48,5 -0.13,0.32 -0.21,0.45 -0.39,0.71 -0.16,0.25 -0.3,0.37 -0.43,0.58 1.11,0.74 2.03,1.95 2.03,3.43l0 8.99c0,0.62 -0.56,0.99 -1.13,1.02zm-35.75 -16.8c0,-0.32 0.15,-0.85 0.24,-1.09 0.24,-0.59 0.76,-1.11 1.37,-1.37 2.15,-0.93 3.86,0.82 3.86,2.46 0,2.94 -4.07,3.72 -5.19,1.13 -0.13,-0.3 -0.28,-0.76 -0.28,-1.13z"/>
   <path class="fil0" d="M20.69 13.15c2.33,0 5.1,-0.43 6.14,2.22 0.18,0.47 0.26,1.06 0.26,1.69l-10.15 0c0,-0.62 0.07,-1.18 0.24,-1.64 0.54,-1.47 1.95,-2.27 3.51,-2.27zm-1.41 -5.08c0,-1.46 1.28,-2.73 2.74,-2.73 1.46,0 2.73,1.27 2.73,2.73 0,2.2 -2.79,3.77 -4.64,1.91 -0.43,-0.43 -0.83,-1.1 -0.83,-1.91zm7.03 -2.73c1.33,0 2.66,0 3.99,0 1.52,0 2.65,-0.16 2.65,1.4l0 8.91c0,1.76 -1.63,1.41 -3.51,1.41 0,-1.56 -0.19,-2.58 -1.1,-3.83 -0.46,-0.64 -1.54,-1.69 -2.34,-1.88 0.05,-0.19 2.29,-3.06 0.31,-6.01zm-9.37 2.42c0,2.68 0.88,2.8 1.09,3.59 -1.51,0.35 -3.44,2.89 -3.44,4.92l0 0.79c-1.88,0 -3.51,0.35 -3.51,-1.41l0 -8.91c0,-1.53 1.08,-1.4 2.58,-1.4 1.35,0 2.7,0 4.06,0 -0.36,0.54 -0.78,1.52 -0.78,2.42zm-8.21 -1.41l0 9.69c0,1.81 1.71,3.36 3.28,3.36l19.93 0c1.8,0 3.36,-1.71 3.36,-3.28l0 -9.85c0,-1.56 -1.55,-3.28 -3.36,-3.28l-19.93 0c-0.43,0 -0.97,0.19 -1.3,0.34 -1,0.47 -1.98,1.66 -1.98,3.02z"/>
  </g>
 </g>
</svg>
