<?xml version="1.0" encoding="UTF-8"?>
<!DOCTYPE svg PUBLIC "-//W3C//DTD SVG 1.1//EN" "http://www.w3.org/Graphics/SVG/1.1/DTD/svg11.dtd">
<!-- Creator: CorelDRAW 2021 (64-Bit) -->
<svg xmlns="http://www.w3.org/2000/svg" xml:space="preserve" width="60px" height="85px" version="1.1" style="shape-rendering:geometricPrecision; text-rendering:geometricPrecision; image-rendering:optimizeQuality; fill-rule:evenodd; clip-rule:evenodd"
viewBox="0 0 60 84.86"
 xmlns:xlink="http://www.w3.org/1999/xlink"
 xmlns:xodm="http://www.corel.com/coreldraw/odm/2003">
 <defs>
  <style type="text/css">
   <![CDATA[
    .fil0 {fill:white}
   ]]>
  </style>
 </defs>
 <g id="Layer_x0020_1">
  <metadata id="CorelCorpID_0Corel-Layer"/>
  <g id="_3176333152720">
   <path class="fil0" d="M39.84 43.3c0,-0.3 0.14,-0.81 0.24,-1.05 0.08,-0.21 0.38,-0.65 0.54,-0.81 0.18,-0.18 0.52,-0.41 0.78,-0.52 2.08,-0.9 3.73,0.8 3.73,2.38 0,1.59 -1.64,3.23 -3.69,2.41 -0.21,-0.08 -0.65,-0.38 -0.82,-0.54 -0.41,-0.42 -0.78,-1.26 -0.78,-1.87zm7.24 16.25l-0.16 0c-0.46,-0.02 -0.91,-0.29 -1.01,-0.85 -0.12,-0.6 0.11,-8.09 -0.08,-8.99 -0.21,-0.9 -0.95,-1.5 -2.06,-1.5 -1.21,0 -2.77,-0.22 -3.53,0.63l-2.02 2.44c-1.32,1.69 -1.14,1.47 -2.99,1.47 -0.59,0 -1.69,-0.05 -2.12,0.07 -1.16,0.33 -1.13,2.2 0.53,2.2l5.22 0c0.43,0 2.32,-2.65 3.1,-2.65 0.73,0 1.28,0.37 1.28,0.98 0,0.9 -0.32,0.97 -1.04,1.69 -1.89,1.89 -1.62,1.19 -1.6,3.15 0.01,0.9 -0.44,1.3 -0.93,1.36l-0.31 0c-0.53,-0.06 -1.03,-0.46 -1.03,-0.98l0 -1.29 -19.05 0 0 1.29c0,0.54 -0.49,0.93 -1.02,0.98l-0.25 0c-0.29,-0.03 -0.58,-0.16 -0.78,-0.44 -0.37,-0.47 -0.16,-1.37 -0.21,-2.21 -0.02,-0.41 -0.19,-0.45 -0.44,-0.69 -0.45,-0.45 -2.21,-1.99 -2.21,-2.55 0,-0.9 0.38,-1.29 1.29,-1.29 0.54,0 1.75,1.42 2.32,1.99 0.16,0.16 0.55,0.66 0.77,0.66l5.22 0c1.68,0 1.71,-1.91 0.48,-2.22 -0.43,-0.1 -1.62,-0.05 -2.22,-0.05 -1.75,0 -1.58,0.12 -2.9,-1.56l-1.99 -2.39c-0.34,-0.34 -0.94,-0.59 -1.61,-0.59 -1.63,0 -3.58,-0.32 -3.95,1.57 -0.19,0.92 0.05,8.47 -0.09,8.99 -0.13,0.51 -0.55,0.75 -0.98,0.78l-0.18 0c-0.55,-0.03 -1.07,-0.39 -1.07,-0.98l0 -8.69c0,-1.44 0.88,-2.61 1.96,-3.33 -0.85,-1.27 -1.21,-1.51 -1.21,-3.55 0,-0.93 0.42,-1.89 0.91,-2.57 0.29,-0.41 0.45,-0.59 0.84,-0.9 2.26,-1.79 5.33,-1.42 6.94,0.61 0.63,0.8 1.14,1.73 1.14,2.86 0,2.27 -0.5,2.46 -1.44,3.85 0.39,0.26 2.41,2.75 2.78,3.2 0.2,0.25 0.17,0.4 0.55,0.43 1.3,0.14 2.93,-0.38 4.28,0.64 0.64,0.48 1.39,1.46 1.39,2.54 0,1.08 -0.11,0.83 -0.15,1.36l2.72 0c-0.36,-1.56 -0.11,-2.88 1.24,-3.9 0.93,-0.71 1.74,-0.64 3.29,-0.64 0.25,0 0.85,0.03 1.06,0 0.3,-0.06 0.32,-0.25 0.51,-0.47l2.23 -2.68c0.17,-0.19 0.32,-0.35 0.51,-0.48 -0.32,-0.48 -0.68,-0.79 -0.96,-1.38 -0.62,-1.35 -0.67,-3 0,-4.34 0.38,-0.76 0.92,-1.38 1.61,-1.87 1.7,-1.18 4.02,-1.19 5.7,0.03l1.17 1.18c1.01,1.45 1.14,3.21 0.46,4.84 -0.12,0.3 -0.21,0.43 -0.37,0.68 -0.17,0.25 -0.3,0.36 -0.43,0.56 1.08,0.72 1.97,1.89 1.97,3.33l0 8.69c0,0.6 -0.53,0.95 -1.08,0.98zm-34.6 -16.25c0,-0.3 0.14,-0.81 0.24,-1.05 0.22,-0.57 0.73,-1.07 1.31,-1.33 2.09,-0.9 3.74,0.8 3.74,2.38 0,2.84 -3.93,3.61 -5.02,1.09 -0.12,-0.28 -0.27,-0.73 -0.27,-1.09z"/>
   <path class="fil0" d="M27.52 30.68c2.26,0 4.94,-0.42 5.94,2.14 0.18,0.46 0.26,1.03 0.26,1.64l-9.83 0c0,-0.6 0.08,-1.14 0.24,-1.58 0.52,-1.42 1.88,-2.2 3.39,-2.2zm-1.36 -4.91c0,-1.42 1.23,-2.65 2.65,-2.65 1.41,0 2.64,1.23 2.64,2.65 0,2.13 -2.69,3.64 -4.49,1.84 -0.41,-0.42 -0.8,-1.06 -0.8,-1.84zm6.8 -2.65c1.29,0 2.57,0 3.86,0 1.47,0 2.57,-0.15 2.57,1.36l0 8.62c0,1.7 -1.58,1.36 -3.4,1.36 0,-1.51 -0.18,-2.49 -1.06,-3.71 -0.45,-0.61 -1.5,-1.63 -2.27,-1.81 0.05,-0.19 2.22,-2.97 0.3,-5.82zm-9.07 2.34c0,2.6 0.86,2.71 1.06,3.48 -1.46,0.34 -3.32,2.79 -3.32,4.76l0 0.76c-1.83,0 -3.4,0.34 -3.4,-1.36l0 -8.62c0,-1.48 1.04,-1.36 2.49,-1.36 1.31,0 2.62,0 3.93,0 -0.35,0.52 -0.76,1.48 -0.76,2.34zm-7.93 -1.36l0 9.38c0,1.74 1.65,3.25 3.17,3.25l19.28 0c1.74,0 3.25,-1.66 3.25,-3.18l0 -9.52c0,-1.52 -1.5,-3.18 -3.25,-3.18l-19.28 0c-0.42,0 -0.94,0.18 -1.26,0.33 -0.97,0.45 -1.91,1.6 -1.91,2.92z"/>
  </g>
 </g>
</svg>
